<?xml version="1.0" standalone="no"?>
<!DOCTYPE svg PUBLIC "-//W3C//DTD SVG 20010904//EN"
 "http://www.w3.org/TR/2001/REC-SVG-20010904/DTD/svg10.dtd">
<svg version="1.0" xmlns="http://www.w3.org/2000/svg"
 width="260.000000pt" height="260.000000pt" viewBox="0 0 260.000000 260.000000"
 preserveAspectRatio="xMidYMid meet">
<metadata>
Created by potrace 1.14, written by Peter Selinger 2001-2017
</metadata>
<g transform="translate(0.000000,260.000000) scale(0.100000,-0.100000)"
fill="#000000" stroke="none">
<path d="M0 1300 l0 -1300 1300 0 1300 0 0 1300 0 1300 -1300 0 -1300 0 0
-1300z m916 520 c7 -19 92 -251 188 -515 96 -264 178 -488 182 -498 6 -15 -4
-17 -103 -17 l-109 0 -43 130 -43 130 -195 -2 -196 -3 -42 -125 -42 -125 -106
-3 c-59 -1 -107 0 -107 3 0 3 41 116 91 252 50 137 133 363 184 503 51 140 98
268 104 283 l11 28 106 -3 106 -3 14 -35z m1159 21 c169 -79 201 -335 57 -461
-25 -22 -43 -42 -41 -44 2 -2 22 -13 44 -24 82 -42 126 -118 133 -231 4 -69 1
-81 -25 -131 -36 -68 -94 -113 -179 -140 -60 -18 -93 -20 -360 -20 l-294 0 0
535 0 535 313 0 c283 0 316 -2 352 -19z"/>
<path d="M721 1419 c-39 -117 -69 -214 -67 -216 2 -2 66 -2 144 -1 l140 3 -68
208 c-38 115 -70 211 -73 213 -3 3 -37 -90 -76 -207z"/>
<path d="M1620 1550 l0 -130 156 0 c182 0 204 7 230 77 22 57 12 107 -31 150
l-33 33 -161 0 -161 0 0 -130z"/>
<path d="M1620 1110 l0 -140 171 0 c193 0 222 8 253 74 21 45 20 81 -4 132
-33 66 -59 74 -254 74 l-166 0 0 -140z"/>
</g>
</svg>
